<svg xmlns="http://www.w3.org/2000/svg" width="1600" height="720" viewBox="0 0 1600 720" role="img" aria-labelledby="title desc">
  <title id="title">Shit Mountain — executable anti-pattern reserve</title>
  <desc id="desc">A restrained editorial poster: a geological mountain built from code strata, set on a strict typographic grid with a single safety-orange accent.</desc>

  <defs>
    <clipPath id="mountain-clip">
      <path d="M620 610L676 548L735 534L778 475L836 456L876 390L932 372L976 298L1032 318L1076 244L1124 267L1170 176L1218 245L1276 263L1316 330L1372 352L1410 420L1460 449L1512 610Z"/>
    </clipPath>
    <pattern id="micro-grid" width="40" height="40" patternUnits="userSpaceOnUse">
      <path d="M40 0H0V40" fill="none" stroke="#111111" stroke-opacity="0.045" stroke-width="1"/>
    </pattern>
  </defs>

  <rect width="1600" height="720" fill="#EEEAE1"/>
  <rect width="1600" height="720" fill="url(#micro-grid)"/>

  <g stroke="#111111" stroke-opacity="0.22" stroke-width="1">
    <path d="M80 64H1520"/>
    <path d="M80 656H1520"/>
    <path d="M80 64V656"/>
    <path d="M520 64V656"/>
    <path d="M1520 64V656"/>
  </g>

  <g fill="#111111" font-family="Arial, Helvetica, sans-serif">
    <text x="88" y="104" font-size="16" font-weight="700" letter-spacing="3.8">EXECUTABLE ANTI-PATTERN RESERVE</text>
    <text x="88" y="226" font-size="104" font-weight="900" letter-spacing="-5">SHIT</text>
    <text x="88" y="326" font-size="104" font-weight="900" letter-spacing="-5">MOUNTAIN</text>
    <text x="94" y="382" font-size="18" font-weight="700" letter-spacing="1.1" font-family="Inter, Noto Sans CJK SC, PingFang SC, Microsoft YaHei, Arial, sans-serif">能运行，不代表能维护。</text>
  </g>

  <g font-family="ui-monospace, SFMono-Regular, Menlo, Consolas, monospace" fill="#111111">
    <text x="88" y="506" font-size="14" letter-spacing="1.8">SITE / SM-000</text>
    <text x="88" y="536" font-size="14" letter-spacing="1.8">STATUS / RUNNABLE</text>
    <text x="88" y="566" font-size="14" letter-spacing="1.8">STABILITY / CONDITIONAL</text>
    <text x="88" y="596" font-size="14" letter-spacing="1.8">MAINTAINABILITY / DISPUTED</text>
  </g>

  <rect x="88" y="626" width="312" height="8" fill="#FF4D00"/>

  <path d="M620 610L676 548L735 534L778 475L836 456L876 390L932 372L976 298L1032 318L1076 244L1124 267L1170 176L1218 245L1276 263L1316 330L1372 352L1410 420L1460 449L1512 610Z" fill="#111111"/>

  <g clip-path="url(#mountain-clip)">
    <path d="M584 548C720 504 814 532 922 488C1030 444 1120 450 1220 492C1320 534 1426 526 1550 476V548H584Z" fill="#2A2723"/>
    <path d="M584 484C716 452 826 468 928 424C1030 380 1114 388 1216 426C1318 464 1424 460 1550 408V480C1416 530 1310 534 1210 494C1110 454 1020 454 918 496C816 538 714 520 584 556Z" fill="#4A4035"/>
    <path d="M584 416C718 384 818 398 924 356C1030 314 1122 326 1224 362C1326 398 1434 392 1550 348V410C1428 456 1322 460 1216 424C1110 388 1020 382 916 426C812 470 712 450 584 486Z" fill="#6A5745"/>
    <path d="M584 348C706 324 812 334 912 294C1012 254 1112 266 1214 300C1316 334 1420 332 1550 288V350C1418 394 1314 398 1210 364C1106 330 1016 318 910 358C804 398 706 388 584 418Z" fill="#8B7158"/>
    <path d="M584 282C716 258 812 270 920 230C1028 190 1120 202 1220 236C1320 270 1420 268 1550 228V290C1422 332 1318 336 1212 302C1106 268 1014 256 910 296C806 336 704 324 584 350Z" fill="#B09678"/>

    <g font-family="ui-monospace, SFMono-Regular, Menlo, Consolas, monospace" font-size="15" fill="#EEEAE1" opacity="0.62">
      <text x="704" y="570">if (flag == true) return final_v8;</text>
      <text x="840" y="508">catch (Exception e) { /* ignore */ }</text>
      <text x="945" y="440">EverythingManager.getInstance().run();</text>
      <text x="1030" y="374">TODO: temporary fix — 2019</text>
      <text x="1102" y="310">switch(type) { default: return 42; }</text>
      <text x="1145" y="246">tmp_new_final_FINAL</text>
    </g>

    <path d="M1198 182L1160 266L1192 316L1148 382L1180 438L1136 516L1164 610" fill="none" stroke="#FF4D00" stroke-width="8" stroke-linejoin="bevel"/>
  </g>

  <path d="M620 610L676 548L735 534L778 475L836 456L876 390L932 372L976 298L1032 318L1076 244L1124 267L1170 176L1218 245L1276 263L1316 330L1372 352L1410 420L1460 449L1512 610" fill="none" stroke="#111111" stroke-width="3"/>
  <path d="M584 610H1520" stroke="#111111" stroke-width="3"/>

  <g font-family="ui-monospace, SFMono-Regular, Menlo, Consolas, monospace" font-size="13" fill="#111111">
    <text x="596" y="130" letter-spacing="2">FIG. 01 — ACCUMULATED TECHNICAL DEBT</text>
    <text x="1508" y="130" text-anchor="end" letter-spacing="2">ELEVATION: UNBOUNDED</text>
    <text x="1468" y="642" text-anchor="end" letter-spacing="1.6">FAULT LINE / CHANGE REQUEST</text>
  </g>

  <g stroke="#FF4D00" stroke-width="2" fill="none">
    <path d="M1390 628H1468"/>
    <path d="M1390 628L1358 594"/>
  </g>

  <g font-family="ui-monospace, SFMono-Regular, Menlo, Consolas, monospace" font-size="12" fill="#111111" opacity="0.72">
    <text x="88" y="687" letter-spacing="2.4">ARCHIVE OF RUNNABLE FAILURES</text>
    <text x="1512" y="687" text-anchor="end" letter-spacing="2.4">EST. 2026 / OPEN FOR INSPECTION</text>
  </g>
</svg>